<svg version="1.1" xmlns="http://www.w3.org/2000/svg" viewBox="0 0 703.8801060930125 763.8767694337225" width="2111.6403182790373" height="2291.6303083011676">
  <!-- svg-source:excalidraw -->
  
  <defs>
    <style class="style-fonts">
      @font-face {
        font-family: "Virgil";
        src: url("https://excalidraw.com/Virgil.woff2");
      }
      @font-face {
        font-family: "Cascadia";
        src: url("https://excalidraw.com/Cascadia.woff2");
      }
    </style>
    
  </defs>
  <g stroke-linecap="round" transform="translate(10 153.6994486600068) rotate(0 129.779296875 182.912109375)"><path d="M32 0 M32 0 C95.03 0, 158.07 0, 227.56 0 M32 0 C75.32 0, 118.65 0, 227.56 0 M227.56 0 C248.89 0, 259.56 10.67, 259.56 32 M227.56 0 C248.89 0, 259.56 10.67, 259.56 32 M259.56 32 C259.56 150.2, 259.56 268.39, 259.56 333.82 M259.56 32 C259.56 122.19, 259.56 212.39, 259.56 333.82 M259.56 333.82 C259.56 355.16, 248.89 365.82, 227.56 365.82 M259.56 333.82 C259.56 355.16, 248.89 365.82, 227.56 365.82 M227.56 365.82 C157.91 365.82, 88.25 365.82, 32 365.82 M227.56 365.82 C149.6 365.82, 71.64 365.82, 32 365.82 M32 365.82 C10.67 365.82, 0 355.16, 0 333.82 M32 365.82 C10.67 365.82, 0 355.16, 0 333.82 M0 333.82 C0 247.36, 0 160.9, 0 32 M0 333.82 C0 262.07, 0 190.31, 0 32 M0 32 C0 10.67, 10.67 0, 32 0 M0 32 C0 10.67, 10.67 0, 32 0" stroke="#f08c00" stroke-width="4" fill="none"></path></g><g stroke-linecap="round" transform="translate(27.071103277081704 213.27029285153452) rotate(0 40.421875 128.501953125)"><path d="M20.21 0 L60.63 0 L69.48 1.26 L75.79 5.05 L78 7.89 L80.53 15.47 L80.84 236.79 L80.53 241.53 L78 249.11 L72.95 254.16 L65.37 256.69 L20.21 257 L11.37 255.74 L5.05 251.95 L2.84 249.11 L0.32 241.53 L0.32 15.47 L1.26 11.37 L5.05 5.05 L11.37 1.26 L20.21 0" stroke="none" stroke-width="0" fill="#ffc9c9"></path><path d="M20.21 0 M20.21 0 C31.08 0, 41.96 0, 60.63 0 M20.21 0 C31.79 0, 43.37 0, 60.63 0 M60.63 0 C74.11 0, 80.84 6.74, 80.84 20.21 M60.63 0 C74.11 0, 80.84 6.74, 80.84 20.21 M80.84 20.21 C80.84 74.3, 80.84 128.39, 80.84 236.79 M80.84 20.21 C80.84 91.86, 80.84 163.52, 80.84 236.79 M80.84 236.79 C80.84 250.27, 74.11 257, 60.63 257 M80.84 236.79 C80.84 250.27, 74.11 257, 60.63 257 M60.63 257 C45.47 257, 30.3 257, 20.21 257 M60.63 257 C49.14 257, 37.65 257, 20.21 257 M20.21 257 C6.74 257, 0 250.27, 0 236.79 M20.21 257 C6.74 257, 0 250.27, 0 236.79 M0 236.79 C0 153.7, 0 70.6, 0 20.21 M0 236.79 C0 159.39, 0 81.99, 0 20.21 M0 20.21 C0 6.74, 6.74 0, 20.21 0 M0 20.21 C0 6.74, 6.74 0, 20.21 0" stroke="#1e1e1e" stroke-width="4" fill="none"></path></g><g stroke-linecap="round" transform="translate(123.89340639717585 214.53306146417032) rotate(0 67.509765625 130.298828125)"><path d="M32 0 L110.52 0.5 L117.02 2 L122.52 4.5 L127.02 8 L130.52 12.5 L133.02 18 L134.52 24.5 L135.02 32 L135.02 228.6 L134.52 236.1 L133.02 242.6 L130.52 248.1 L127.02 252.6 L122.52 256.1 L117.02 258.6 L110.52 260.1 L103.02 260.6 L24.5 260.1 L18 258.6 L12.5 256.1 L8 252.6 L4.5 248.1 L2 242.6 L0.5 236.1 L0 228.6 L0.5 24.5 L2 18 L4.5 12.5 L8 8 L12.5 4.5 L18 2 L24.5 0.5 L32 0" stroke="none" stroke-width="0" fill="#ffc9c9"></path><path d="M32 0 M32 0 C58.55 0, 85.09 0, 103.02 0 M32 0 C54.13 0, 76.26 0, 103.02 0 M103.02 0 C124.35 0, 135.02 10.67, 135.02 32 M103.02 0 C124.35 0, 135.02 10.67, 135.02 32 M135.02 32 C135.02 71.68, 135.02 111.36, 135.02 228.6 M135.02 32 C135.02 75.5, 135.02 119.01, 135.02 228.6 M135.02 228.6 C135.02 249.93, 124.35 260.6, 103.02 260.6 M135.02 228.6 C135.02 249.93, 124.35 260.6, 103.02 260.6 M103.02 260.6 C82.72 260.6, 62.42 260.6, 32 260.6 M103.02 260.6 C88.04 260.6, 73.07 260.6, 32 260.6 M32 260.6 C10.67 260.6, 0 249.93, 0 228.6 M32 260.6 C10.67 260.6, 0 249.93, 0 228.6 M0 228.6 C0 161, 0 93.4, 0 32 M0 228.6 C0 182.19, 0 135.77, 0 32 M0 32 C0 10.67, 10.67 0, 32 0 M0 32 C0 10.67, 10.67 0, 32 0" stroke="#1e1e1e" stroke-width="4" fill="none"></path></g><g stroke-linecap="round" transform="translate(132.91327172291824 421.9908834912521) rotate(0 57.9140625 22)"><path d="M2.93 2.55 C2.93 2.55, 2.93 2.55, 2.93 2.55 M2.93 2.55 C2.93 2.55, 2.93 2.55, 2.93 2.55 M9.75 19.08 C13.32 14.98, 16.89 10.88, 19.6 7.76 M9.75 19.08 C12.37 16.08, 14.98 13.07, 19.6 7.76 M8.05 45.43 C20.89 30.66, 33.73 15.89, 40.86 7.69 M8.05 45.43 C16.88 35.27, 25.71 25.11, 40.86 7.69 M22.1 53.66 C30.53 43.96, 38.96 34.26, 62.12 7.62 M22.1 53.66 C32.09 42.16, 42.09 30.66, 62.12 7.62 M43.36 53.59 C56.6 38.36, 69.84 23.13, 83.38 7.55 M43.36 53.59 C53.69 41.71, 64.01 29.83, 83.38 7.55 M64.62 53.52 C74.8 41.81, 84.98 30.09, 109.88 1.45 M64.62 53.52 C75.31 41.22, 86 28.92, 109.88 1.45 M85.88 53.45 C98.57 38.85, 111.26 24.25, 119.99 14.21 M85.88 53.45 C95.19 42.74, 104.51 32.02, 119.99 14.21" stroke="#ffc9c9" stroke-width="2" fill="none"></path><path d="M11 0 M11 0 C39.23 0, 67.47 0, 104.83 0 M11 0 C35.49 0, 59.97 0, 104.83 0 M104.83 0 C112.16 0, 115.83 3.67, 115.83 11 M104.83 0 C112.16 0, 115.83 3.67, 115.83 11 M115.83 11 C115.83 15.56, 115.83 20.13, 115.83 33 M115.83 11 C115.83 18.11, 115.83 25.23, 115.83 33 M115.83 33 C115.83 40.33, 112.16 44, 104.83 44 M115.83 33 C115.83 40.33, 112.16 44, 104.83 44 M104.83 44 C83.15 44, 61.47 44, 11 44 M104.83 44 C78.62 44, 52.4 44, 11 44 M11 44 C3.67 44, 0 40.33, 0 33 M11 44 C3.67 44, 0 40.33, 0 33 M0 33 C0 25, 0 17.01, 0 11 M0 33 C0 25.66, 0 18.31, 0 11 M0 11 C0 3.67, 3.67 0, 11 0 M0 11 C0 3.67, 3.67 0, 11 0" stroke="#1e1e1e" stroke-width="4" fill="none"></path></g><g transform="translate(155.67108422291824 431.9908834912521) rotate(0 35.15625 12)"><text x="35.15625" y="0" font-family="Cascadia, Segoe UI Emoji" font-size="20px" fill="#1e1e1e" text-anchor="middle" style="white-space: pre;" direction="ltr" dominant-baseline="text-before-edge">Global</text></g><g stroke-linecap="round" transform="translate(133.48828125 378.5377584912521) rotate(0 57.9140625 16.80859375)"><path d="M8.4 0 M8.4 0 C44 0, 79.59 0, 107.42 0 M8.4 0 C31.55 0, 54.7 0, 107.42 0 M107.42 0 C113.03 0, 115.83 2.8, 115.83 8.4 M107.42 0 C113.03 0, 115.83 2.8, 115.83 8.4 M115.83 8.4 C115.83 12.63, 115.83 16.86, 115.83 25.21 M115.83 8.4 C115.83 14.63, 115.83 20.85, 115.83 25.21 M115.83 25.21 C115.83 30.82, 113.03 33.62, 107.42 33.62 M115.83 25.21 C115.83 30.82, 113.03 33.62, 107.42 33.62 M107.42 33.62 C86.78 33.62, 66.13 33.62, 8.4 33.62 M107.42 33.62 C68.62 33.62, 29.82 33.62, 8.4 33.62 M8.4 33.62 C2.8 33.62, 0 30.82, 0 25.21 M8.4 33.62 C2.8 33.62, 0 30.82, 0 25.21 M0 25.21 C0 21.38, 0 17.55, 0 8.4 M0 25.21 C0 21.68, 0 18.14, 0 8.4 M0 8.4 C0 2.8, 2.8 0, 8.4 0 M0 8.4 C0 2.8, 2.8 0, 8.4 0" stroke="#1e1e1e" stroke-width="4" fill="none"></path></g><g stroke-linecap="round" transform="translate(134.23828125 335.6940084912521) rotate(0 57.9140625 16.80859375)"><path d="M8.4 0 M8.4 0 C44.73 0, 81.07 0, 107.42 0 M8.4 0 C45.25 0, 82.1 0, 107.42 0 M107.42 0 C113.03 0, 115.83 2.8, 115.83 8.4 M107.42 0 C113.03 0, 115.83 2.8, 115.83 8.4 M115.83 8.4 C115.83 14.01, 115.83 19.62, 115.83 25.21 M115.83 8.4 C115.83 14.99, 115.83 21.58, 115.83 25.21 M115.83 25.21 C115.83 30.82, 113.03 33.62, 107.42 33.62 M115.83 25.21 C115.83 30.82, 113.03 33.62, 107.42 33.62 M107.42 33.62 C70.89 33.62, 34.36 33.62, 8.4 33.62 M107.42 33.62 C73.99 33.62, 40.56 33.62, 8.4 33.62 M8.4 33.62 C2.8 33.62, 0 30.82, 0 25.21 M8.4 33.62 C2.8 33.62, 0 30.82, 0 25.21 M0 25.21 C0 19.32, 0 13.44, 0 8.4 M0 25.21 C0 20.01, 0 14.81, 0 8.4 M0 8.4 C0 2.8, 2.8 0, 8.4 0 M0 8.4 C0 2.8, 2.8 0, 8.4 0" stroke="#1e1e1e" stroke-width="4" fill="none"></path></g><g stroke-linecap="round" transform="translate(133.33984375 292.07569613842793) rotate(0 57.9140625 17.5)"><path d="M2.33 2.02 C2.33 2.02, 2.33 2.02, 2.33 2.02 M2.33 2.02 C2.33 2.02, 2.33 2.02, 2.33 2.02 M9.81 17.8 C12.37 14.87, 14.92 11.93, 18.34 7.99 M9.81 17.8 C12.64 14.55, 15.47 11.3, 18.34 7.99 M12.7 38.87 C18.66 32.02, 24.61 25.17, 39.6 7.92 M12.7 38.87 C22.45 27.65, 32.2 16.44, 39.6 7.92 M33.96 38.8 C41.1 30.59, 48.23 22.38, 60.86 7.86 M33.96 38.8 C44.49 26.69, 55.02 14.58, 60.86 7.86 M55.22 38.73 C62.29 30.6, 69.35 22.48, 81.47 8.54 M55.22 38.73 C60.75 32.37, 66.28 26.01, 81.47 8.54 M76.48 38.66 C84.51 29.42, 92.54 20.19, 108.63 1.68 M76.48 38.66 C87.12 26.43, 97.75 14.19, 108.63 1.68 M97.74 38.59 C103.5 31.97, 109.26 25.35, 120.05 12.93 M97.74 38.59 C102.76 32.82, 107.78 27.05, 120.05 12.93" stroke="#ffc9c9" stroke-width="2" fill="none"></path><path d="M8.75 0 M8.75 0 C31.97 0, 55.2 0, 107.08 0 M8.75 0 C45.33 0, 81.91 0, 107.08 0 M107.08 0 C112.91 0, 115.83 2.92, 115.83 8.75 M107.08 0 C112.91 0, 115.83 2.92, 115.83 8.75 M115.83 8.75 C115.83 15.71, 115.83 22.67, 115.83 26.25 M115.83 8.75 C115.83 14.44, 115.83 20.13, 115.83 26.25 M115.83 26.25 C115.83 32.08, 112.91 35, 107.08 35 M115.83 26.25 C115.83 32.08, 112.91 35, 107.08 35 M107.08 35 C72.61 35, 38.15 35, 8.75 35 M107.08 35 C80.46 35, 53.83 35, 8.75 35 M8.75 35 C2.92 35, 0 32.08, 0 26.25 M8.75 35 C2.92 35, 0 32.08, 0 26.25 M0 26.25 C0 21.27, 0 16.29, 0 8.75 M0 26.25 C0 19.55, 0 12.85, 0 8.75 M0 8.75 C0 2.92, 2.92 0, 8.75 0 M0 8.75 C0 2.92, 2.92 0, 8.75 0" stroke="#1e1e1e" stroke-width="4" fill="none"></path></g><g stroke-linecap="round" transform="translate(403.7277623430125 50.22837396417037) rotate(0 145.076171875 121.728515625)"><path d="M32 0 M32 0 C116.69 0, 201.38 0, 258.15 0 M32 0 C113.26 0, 194.52 0, 258.15 0 M258.15 0 C279.49 0, 290.15 10.67, 290.15 32 M258.15 0 C279.49 0, 290.15 10.67, 290.15 32 M290.15 32 C290.15 101.21, 290.15 170.42, 290.15 211.46 M290.15 32 C290.15 69.74, 290.15 107.48, 290.15 211.46 M290.15 211.46 C290.15 232.79, 279.49 243.46, 258.15 243.46 M290.15 211.46 C290.15 232.79, 279.49 243.46, 258.15 243.46 M258.15 243.46 C208.08 243.46, 158.01 243.46, 32 243.46 M258.15 243.46 C176.2 243.46, 94.25 243.46, 32 243.46 M32 243.46 C10.67 243.46, 0 232.79, 0 211.46 M32 243.46 C10.67 243.46, 0 232.79, 0 211.46 M0 211.46 C0 157.39, 0 103.32, 0 32 M0 211.46 C0 167.53, 0 123.6, 0 32 M0 32 C0 10.67, 10.67 0, 32 0 M0 32 C0 10.67, 10.67 0, 32 0" stroke="#1e1e1e" stroke-width="4" fill="none"></path></g><g stroke-linecap="round" transform="translate(417.2667498528242 63.59635224125208) rotate(0 57.9140625 16.80859375)"><path d="M8.4 0 L107.42 0 L111.1 0.53 L113.73 2.1 L115.3 4.73 L115.83 8.4 L115.3 28.89 L113.73 31.52 L111.1 33.09 L107.42 33.62 L8.4 33.62 L4.73 33.09 L2.1 31.52 L0.53 28.89 L0 8.4 L0.53 4.73 L2.1 2.1 L4.73 0.53 L8.4 0" stroke="none" stroke-width="0" fill="#b2f2bb"></path><path d="M8.4 0 M8.4 0 C28.66 0, 48.91 0, 107.42 0 M8.4 0 C40.77 0, 73.14 0, 107.42 0 M107.42 0 C113.03 0, 115.83 2.8, 115.83 8.4 M107.42 0 C113.03 0, 115.83 2.8, 115.83 8.4 M115.83 8.4 C115.83 13.03, 115.83 17.65, 115.83 25.21 M115.83 8.4 C115.83 14.71, 115.83 21.01, 115.83 25.21 M115.83 25.21 C115.83 30.82, 113.03 33.62, 107.42 33.62 M115.83 25.21 C115.83 30.82, 113.03 33.62, 107.42 33.62 M107.42 33.62 C81.58 33.62, 55.74 33.62, 8.4 33.62 M107.42 33.62 C84.25 33.62, 61.07 33.62, 8.4 33.62 M8.4 33.62 C2.8 33.62, 0 30.82, 0 25.21 M8.4 33.62 C2.8 33.62, 0 30.82, 0 25.21 M0 25.21 C0 19.78, 0 14.34, 0 8.4 M0 25.21 C0 18.78, 0 12.35, 0 8.4 M0 8.4 C0 2.8, 2.8 0, 8.4 0 M0 8.4 C0 2.8, 2.8 0, 8.4 0" stroke="#1e1e1e" stroke-width="4" fill="none"></path></g><g stroke-linecap="round" transform="translate(418.03125 103.89713349125208) rotate(0 57.9140625 16.80859375)"><path d="M2.24 1.94 C2.24 1.94, 2.24 1.94, 2.24 1.94 M2.24 1.94 C2.24 1.94, 2.24 1.94, 2.24 1.94 M10.38 16.97 C12.63 14.38, 14.88 11.79, 18.25 7.91 M10.38 16.97 C13.42 13.47, 16.46 9.97, 18.25 7.91 M13.27 38.03 C18.45 32.07, 23.64 26.1, 38.85 8.6 M13.27 38.03 C19.66 30.67, 26.06 23.31, 38.85 8.6 M34.53 37.96 C42.49 28.8, 50.45 19.64, 60.11 8.53 M34.53 37.96 C44.14 26.91, 53.75 15.85, 60.11 8.53 M55.79 37.89 C64.17 28.25, 72.56 18.6, 81.37 8.46 M55.79 37.89 C65.38 26.86, 74.97 15.83, 81.37 8.46 M77.05 37.83 C88.04 25.18, 99.03 12.54, 108.54 1.6 M77.05 37.83 C84.33 29.45, 91.61 21.07, 108.54 1.6 M98.31 37.76 C104.93 30.13, 111.56 22.51, 120.61 12.1 M98.31 37.76 C106.27 28.6, 114.22 19.45, 120.61 12.1" stroke="#ffc9c9" stroke-width="2" fill="none"></path><path d="M8.4 0 M8.4 0 C44.28 0, 80.15 0, 107.42 0 M8.4 0 C32.94 0, 57.48 0, 107.42 0 M107.42 0 C113.03 0, 115.83 2.8, 115.83 8.4 M107.42 0 C113.03 0, 115.83 2.8, 115.83 8.4 M115.83 8.4 C115.83 13.43, 115.83 18.46, 115.83 25.21 M115.83 8.4 C115.83 12.01, 115.83 15.61, 115.83 25.21 M115.83 25.21 C115.83 30.82, 113.03 33.62, 107.42 33.62 M115.83 25.21 C115.83 30.82, 113.03 33.62, 107.42 33.62 M107.42 33.62 C83.19 33.62, 58.96 33.62, 8.4 33.62 M107.42 33.62 C73.5 33.62, 39.57 33.62, 8.4 33.62 M8.4 33.62 C2.8 33.62, 0 30.82, 0 25.21 M8.4 33.62 C2.8 33.62, 0 30.82, 0 25.21 M0 25.21 C0 19.46, 0 13.71, 0 8.4 M0 25.21 C0 19.93, 0 14.65, 0 8.4 M0 8.4 C0 2.8, 2.8 0, 8.4 0 M0 8.4 C0 2.8, 2.8 0, 8.4 0" stroke="#1e1e1e" stroke-width="4" fill="none"></path></g><g stroke-linecap="round" transform="translate(418.23828125 144.98307099125208) rotate(0 57.9140625 16.80859375)"><path d="M2.24 1.94 C2.24 1.94, 2.24 1.94, 2.24 1.94 M2.24 1.94 C2.24 1.94, 2.24 1.94, 2.24 1.94 M10.38 16.97 C12.82 14.16, 15.26 11.35, 18.25 7.91 M10.38 16.97 C12.35 14.7, 14.32 12.43, 18.25 7.91 M13.27 38.03 C19.83 30.48, 26.39 22.94, 38.85 8.6 M13.27 38.03 C21.76 28.26, 30.26 18.49, 38.85 8.6 M34.53 37.96 C39.79 31.91, 45.04 25.87, 60.11 8.53 M34.53 37.96 C42.09 29.26, 49.66 20.55, 60.11 8.53 M55.79 37.89 C61.86 30.9, 67.94 23.91, 81.37 8.46 M55.79 37.89 C63.75 28.74, 71.71 19.58, 81.37 8.46 M77.05 37.83 C83.98 29.85, 90.91 21.88, 108.54 1.6 M77.05 37.83 C83.75 30.11, 90.46 22.4, 108.54 1.6 M98.31 37.76 C103.92 31.3, 109.54 24.84, 120.61 12.1 M98.31 37.76 C106.3 28.56, 114.29 19.37, 120.61 12.1" stroke="#ffc9c9" stroke-width="2" fill="none"></path><path d="M8.4 0 M8.4 0 C38.69 0, 68.97 0, 107.42 0 M8.4 0 C36.37 0, 64.35 0, 107.42 0 M107.42 0 C113.03 0, 115.83 2.8, 115.83 8.4 M107.42 0 C113.03 0, 115.83 2.8, 115.83 8.4 M115.83 8.4 C115.83 13.82, 115.83 19.23, 115.83 25.21 M115.83 8.4 C115.83 13.87, 115.83 19.34, 115.83 25.21 M115.83 25.21 C115.83 30.82, 113.03 33.62, 107.42 33.62 M115.83 25.21 C115.83 30.82, 113.03 33.62, 107.42 33.62 M107.42 33.62 C83.99 33.62, 60.56 33.62, 8.4 33.62 M107.42 33.62 C83.13 33.62, 58.83 33.62, 8.4 33.62 M8.4 33.62 C2.8 33.62, 0 30.82, 0 25.21 M8.4 33.62 C2.8 33.62, 0 30.82, 0 25.21 M0 25.21 C0 18.67, 0 12.13, 0 8.4 M0 25.21 C0 19.54, 0 13.87, 0 8.4 M0 8.4 C0 2.8, 2.8 0, 8.4 0 M0 8.4 C0 2.8, 2.8 0, 8.4 0" stroke="#1e1e1e" stroke-width="4" fill="none"></path></g><g stroke-linecap="round" transform="translate(418.53556531593074 184.06630208426446) rotate(0 57.9140625 22.5)"><path d="M11.25 0 M11.25 0 C44.41 0, 77.57 0, 104.58 0 M11.25 0 C30.99 0, 50.73 0, 104.58 0 M104.58 0 C112.08 0, 115.83 3.75, 115.83 11.25 M104.58 0 C112.08 0, 115.83 3.75, 115.83 11.25 M115.83 11.25 C115.83 16.82, 115.83 22.39, 115.83 33.75 M115.83 11.25 C115.83 18.21, 115.83 25.18, 115.83 33.75 M115.83 33.75 C115.83 41.25, 112.08 45, 104.58 45 M115.83 33.75 C115.83 41.25, 112.08 45, 104.58 45 M104.58 45 C70.18 45, 35.79 45, 11.25 45 M104.58 45 C69.46 45, 34.34 45, 11.25 45 M11.25 45 C3.75 45, 0 41.25, 0 33.75 M11.25 45 C3.75 45, 0 41.25, 0 33.75 M0 33.75 C0 26.61, 0 19.47, 0 11.25 M0 33.75 C0 27.15, 0 20.55, 0 11.25 M0 11.25 C0 3.75, 3.75 0, 11.25 0 M0 11.25 C0 3.75, 3.75 0, 11.25 0" stroke="#e03131" stroke-width="4" fill="none"></path></g><g transform="translate(435.43400281593074 194.56630208426446) rotate(0 41.015625 12)"><text x="41.015625" y="0" font-family="Cascadia, Segoe UI Emoji" font-size="20px" fill="#2f9e44" text-anchor="middle" style="white-space: pre;" direction="ltr" dominant-baseline="text-before-edge">fetch()</text></g><g stroke-linecap="round" transform="translate(555.9001309848093 158.45117531798275) rotate(0 63.90735638259537 62.77415572517549)"><path d="M31.39 0 L103.78 0.49 L110.16 1.96 L115.55 4.41 L119.97 7.85 L123.4 12.26 L125.85 17.66 L127.32 24.03 L127.81 31.39 L127.32 101.52 L125.85 107.89 L123.4 113.29 L119.97 117.7 L115.55 121.13 L110.16 123.59 L103.78 125.06 L96.43 125.55 L24.03 125.06 L17.66 123.59 L12.26 121.13 L7.85 117.7 L4.41 113.29 L1.96 107.89 L0.49 101.52 L0 94.16 L0 31.39 L0.49 24.03 L1.96 17.66 L4.41 12.26 L7.85 7.85 L12.26 4.41 L17.66 1.96 L24.03 0.49 L31.39 0" stroke="none" stroke-width="0" fill="#b2f2bb"></path><path d="M31.39 0 M31.39 0 C47.65 0, 63.91 0, 96.43 0 M31.39 0 C54.77 0, 78.15 0, 96.43 0 M96.43 0 C117.35 0, 127.81 10.46, 127.81 31.39 M96.43 0 C117.35 0, 127.81 10.46, 127.81 31.39 M127.81 31.39 C127.81 54.2, 127.81 77.02, 127.81 94.16 M127.81 31.39 C127.81 46.33, 127.81 61.28, 127.81 94.16 M127.81 94.16 C127.81 115.09, 117.35 125.55, 96.43 125.55 M127.81 94.16 C127.81 115.09, 117.35 125.55, 96.43 125.55 M96.43 125.55 C76.75 125.55, 57.07 125.55, 31.39 125.55 M96.43 125.55 C77.05 125.55, 57.67 125.55, 31.39 125.55 M31.39 125.55 C10.46 125.55, 0 115.09, 0 94.16 M31.39 125.55 C10.46 125.55, 0 115.09, 0 94.16 M0 94.16 C0 76.93, 0 59.69, 0 31.39 M0 94.16 C0 70.27, 0 46.37, 0 31.39 M0 31.39 C0 10.46, 10.46 0, 31.39 0 M0 31.39 C0 10.46, 10.46 0, 31.39 0" stroke="#1e1e1e" stroke-width="4" fill="none"></path></g><g transform="translate(567.0731123674046 197.22533104315823) rotate(0 52.734375 24)"><text x="52.734375" y="0" font-family="Cascadia, Segoe UI Emoji" font-size="20px" fill="#1e1e1e" text-anchor="middle" style="white-space: pre;" direction="ltr" dominant-baseline="text-before-edge">Register</text><text x="52.734375" y="24" font-family="Cascadia, Segoe UI Emoji" font-size="20px" fill="#1e1e1e" text-anchor="middle" style="white-space: pre;" direction="ltr" dominant-baseline="text-before-edge">call back</text></g><g stroke-linecap="round" transform="translate(370.734375 518.6694461384279) rotate(0 129.25390625 44.521484375)"><path d="M22.26 0 L236.25 0 L245.99 1.39 L249.81 3.13 L255.38 8.7 L258.16 17.04 L258.51 66.78 L257.12 76.52 L255.38 80.35 L249.81 85.91 L245.99 87.65 L236.25 89.04 L22.26 89.04 L12.52 87.65 L5.57 83.48 L3.13 80.35 L0.35 72 L0.35 17.04 L3.13 8.7 L8.7 3.13 L17.04 0.35 L22.26 0" stroke="none" stroke-width="0" fill="#ffc9c9"></path><path d="M22.26 0 M22.26 0 C103.98 0, 185.7 0, 236.25 0 M22.26 0 C91.72 0, 161.18 0, 236.25 0 M236.25 0 C251.09 0, 258.51 7.42, 258.51 22.26 M236.25 0 C251.09 0, 258.51 7.42, 258.51 22.26 M258.51 22.26 C258.51 36.24, 258.51 50.21, 258.51 66.78 M258.51 22.26 C258.51 34.3, 258.51 46.34, 258.51 66.78 M258.51 66.78 C258.51 81.62, 251.09 89.04, 236.25 89.04 M258.51 66.78 C258.51 81.62, 251.09 89.04, 236.25 89.04 M236.25 89.04 C183.61 89.04, 130.98 89.04, 22.26 89.04 M236.25 89.04 C182.15 89.04, 128.05 89.04, 22.26 89.04 M22.26 89.04 C7.42 89.04, 0 81.62, 0 66.78 M22.26 89.04 C7.42 89.04, 0 81.62, 0 66.78 M0 66.78 C0 57.43, 0 48.08, 0 22.26 M0 66.78 C0 53.75, 0 40.72, 0 22.26 M0 22.26 C0 7.42, 7.42 0, 22.26 0 M0 22.26 C0 7.42, 7.42 0, 22.26 0" stroke="#1e1e1e" stroke-width="4" fill="none"></path></g><g stroke-linecap="round" transform="translate(379.12109375 543.9283834912521) rotate(0 32.419921875 21.80000000000001)"><path d="M10.9 0 M10.9 0 C26.82 0, 42.74 0, 53.94 0 M10.9 0 C26.22 0, 41.54 0, 53.94 0 M53.94 0 C61.21 0, 64.84 3.63, 64.84 10.9 M53.94 0 C61.21 0, 64.84 3.63, 64.84 10.9 M64.84 10.9 C64.84 15.99, 64.84 21.09, 64.84 32.7 M64.84 10.9 C64.84 18.74, 64.84 26.57, 64.84 32.7 M64.84 32.7 C64.84 39.97, 61.21 43.6, 53.94 43.6 M64.84 32.7 C64.84 39.97, 61.21 43.6, 53.94 43.6 M53.94 43.6 C41.1 43.6, 28.25 43.6, 10.9 43.6 M53.94 43.6 C37.76 43.6, 21.59 43.6, 10.9 43.6 M10.9 43.6 C3.63 43.6, 0 39.97, 0 32.7 M10.9 43.6 C3.63 43.6, 0 39.97, 0 32.7 M0 32.7 C0 26.73, 0 20.77, 0 10.9 M0 32.7 C0 27.08, 0 21.46, 0 10.9 M0 10.9 C0 3.63, 3.63 0, 10.9 0 M0 10.9 C0 3.63, 3.63 0, 10.9 0" stroke="#1e1e1e" stroke-width="4" fill="none"></path></g><g transform="translate(395.134765625 548.9283834912521) rotate(0 16.40625 16.80000000000001)"><text x="16.40625" y="0" font-family="Cascadia, Segoe UI Emoji" font-size="28px" fill="#1e1e1e" text-anchor="middle" style="white-space: pre;" direction="ltr" dominant-baseline="text-before-edge">CB</text></g><g stroke-linecap="round" transform="translate(448.146484375 544.1432272412521) rotate(0 32.419921875 21.80000000000001)"><path d="M10.9 0 M10.9 0 C21.9 0, 32.9 0, 53.94 0 M10.9 0 C22.91 0, 34.91 0, 53.94 0 M53.94 0 C61.21 0, 64.84 3.63, 64.84 10.9 M53.94 0 C61.21 0, 64.84 3.63, 64.84 10.9 M64.84 10.9 C64.84 16.74, 64.84 22.59, 64.84 32.7 M64.84 10.9 C64.84 15.66, 64.84 20.41, 64.84 32.7 M64.84 32.7 C64.84 39.97, 61.21 43.6, 53.94 43.6 M64.84 32.7 C64.84 39.97, 61.21 43.6, 53.94 43.6 M53.94 43.6 C36.98 43.6, 20.02 43.6, 10.9 43.6 M53.94 43.6 C43.21 43.6, 32.47 43.6, 10.9 43.6 M10.9 43.6 C3.63 43.6, 0 39.97, 0 32.7 M10.9 43.6 C3.63 43.6, 0 39.97, 0 32.7 M0 32.7 C0 27.79, 0 22.88, 0 10.9 M0 32.7 C0 27.67, 0 22.63, 0 10.9 M0 10.9 C0 3.63, 3.63 0, 10.9 0 M0 10.9 C0 3.63, 3.63 0, 10.9 0" stroke="#1e1e1e" stroke-width="4" fill="none"></path></g><g transform="translate(464.16015625 549.1432272412521) rotate(0 16.40625 16.80000000000001)"><text x="16.40625" y="0" font-family="Cascadia, Segoe UI Emoji" font-size="28px" fill="#1e1e1e" text-anchor="middle" style="white-space: pre;" direction="ltr" dominant-baseline="text-before-edge">CB</text></g><g stroke-linecap="round"><g transform="translate(669.20703125 280.8932272412521) rotate(0 -0.23046875 144.4609375)"><path d="M0 0 C-0.08 48.15, -0.38 240.77, -0.46 288.92" stroke="#2f9e44" stroke-width="4.5" fill="none" stroke-dasharray="8 12"></path></g></g><mask></mask><g stroke-linecap="round"><g transform="translate(670.05859375 558.5221334912521) rotate(0 -19.830078125 1.0275584350364397)"><path d="M0 0 C-6.61 0.34, -33.05 1.71, -39.66 2.06" stroke="#2f9e44" stroke-width="4.5" fill="none" stroke-dasharray="8 12"></path></g><g transform="translate(670.05859375 558.5221334912521) rotate(0 -19.830078125 1.0275584350364397)"><path d="M-21.38 -5.69 C-27.98 -2.9, -34.58 -0.1, -39.66 2.06" stroke="#2f9e44" stroke-width="4.5" fill="none"></path></g><g transform="translate(670.05859375 558.5221334912521) rotate(0 -19.830078125 1.0275584350364397)"><path d="M-20.67 7.87 C-27.53 5.77, -34.38 3.67, -39.66 2.06" stroke="#2f9e44" stroke-width="4.5" fill="none"></path></g></g><mask></mask><g stroke-linecap="round" transform="translate(435.6171875 386.7455805183337) rotate(0 106.525390625 47.046875)"><path d="M23.52 0 L189.53 0 L199.82 1.47 L203.86 3.31 L207.17 5.88 L209.74 9.19 L212.68 18.01 L213.05 70.57 L211.58 80.86 L209.74 84.9 L207.17 88.21 L203.86 90.79 L199.82 92.62 L189.53 94.09 L23.52 94.09 L13.23 92.62 L9.19 90.79 L5.88 88.21 L3.31 84.9 L1.47 80.86 L0.37 76.08 L0.37 18.01 L3.31 9.19 L5.88 5.88 L9.19 3.31 L18.01 0.37 L23.52 0" stroke="none" stroke-width="0" fill="#ffec99"></path><path d="M23.52 0 M23.52 0 C74.14 0, 124.75 0, 189.53 0 M23.52 0 C82.24 0, 140.95 0, 189.53 0 M189.53 0 C205.21 0, 213.05 7.84, 213.05 23.52 M189.53 0 C205.21 0, 213.05 7.84, 213.05 23.52 M213.05 23.52 C213.05 40.43, 213.05 57.34, 213.05 70.57 M213.05 23.52 C213.05 33.06, 213.05 42.6, 213.05 70.57 M213.05 70.57 C213.05 86.25, 205.21 94.09, 189.53 94.09 M213.05 70.57 C213.05 86.25, 205.21 94.09, 189.53 94.09 M189.53 94.09 C142.17 94.09, 94.82 94.09, 23.52 94.09 M189.53 94.09 C130.07 94.09, 70.61 94.09, 23.52 94.09 M23.52 94.09 C7.84 94.09, 0 86.25, 0 70.57 M23.52 94.09 C7.84 94.09, 0 86.25, 0 70.57 M0 70.57 C0 54.97, 0 39.37, 0 23.52 M0 70.57 C0 51.86, 0 33.15, 0 23.52 M0 23.52 C0 7.84, 7.84 0, 23.52 0 M0 23.52 C0 7.84, 7.84 0, 23.52 0" stroke="#e03131" stroke-width="4" fill="none"></path></g><g stroke-linecap="round" transform="translate(440.486328125 415.2791552141703) rotate(0 32.419921875 21.80000000000001)"><path d="M2.9 2.52 C2.9 2.52, 2.9 2.52, 2.9 2.52 M2.9 2.52 C2.9 2.52, 2.9 2.52, 2.9 2.52 M9.73 19.06 C11.85 16.62, 13.97 14.18, 19.57 7.74 M9.73 19.06 C12.77 15.56, 15.81 12.06, 19.57 7.74 M8.68 44.65 C19.83 31.82, 30.98 18.99, 40.83 7.67 M8.68 44.65 C15.54 36.76, 22.4 28.87, 40.83 7.67 M22.07 53.64 C30.96 43.41, 39.85 33.18, 64.71 4.58 M22.07 53.64 C38.63 34.58, 55.2 15.53, 64.71 4.58 M43.33 53.57 C54.08 41.2, 64.83 28.83, 73.51 18.85 M43.33 53.57 C51.6 44.05, 59.88 34.53, 73.51 18.85" stroke="#ffc9c9" stroke-width="2" fill="none"></path><path d="M10.9 0 M10.9 0 C25.67 0, 40.45 0, 53.94 0 M10.9 0 C24.26 0, 37.63 0, 53.94 0 M53.94 0 C61.21 0, 64.84 3.63, 64.84 10.9 M53.94 0 C61.21 0, 64.84 3.63, 64.84 10.9 M64.84 10.9 C64.84 17.84, 64.84 24.77, 64.84 32.7 M64.84 10.9 C64.84 15.79, 64.84 20.68, 64.84 32.7 M64.84 32.7 C64.84 39.97, 61.21 43.6, 53.94 43.6 M64.84 32.7 C64.84 39.97, 61.21 43.6, 53.94 43.6 M53.94 43.6 C40.43 43.6, 26.93 43.6, 10.9 43.6 M53.94 43.6 C39.2 43.6, 24.46 43.6, 10.9 43.6 M10.9 43.6 C3.63 43.6, 0 39.97, 0 32.7 M10.9 43.6 C3.63 43.6, 0 39.97, 0 32.7 M0 32.7 C0 24.91, 0 17.11, 0 10.9 M0 32.7 C0 24.83, 0 16.96, 0 10.9 M0 10.9 C0 3.63, 3.63 0, 10.9 0 M0 10.9 C0 3.63, 3.63 0, 10.9 0" stroke="#e03131" stroke-width="4" fill="none"></path></g><g transform="translate(456.5 420.2791552141703) rotate(0 16.40625 16.80000000000001)"><text x="16.40625" y="0" font-family="Cascadia, Segoe UI Emoji" font-size="28px" fill="#e03131" text-anchor="middle" style="white-space: pre;" direction="ltr" dominant-baseline="text-before-edge">CB</text></g><g stroke-linecap="round" transform="translate(509.78631859791824 416.2291647412521) rotate(0 32.419921875 21.80000000000001)"><path d="M2.9 2.52 C2.9 2.52, 2.9 2.52, 2.9 2.52 M2.9 2.52 C2.9 2.52, 2.9 2.52, 2.9 2.52 M9.73 19.06 C13.46 14.77, 17.18 10.48, 19.57 7.74 M9.73 19.06 C11.9 16.56, 14.06 14.07, 19.57 7.74 M8.68 44.65 C19.1 32.66, 29.52 20.68, 40.83 7.67 M8.68 44.65 C20.65 30.88, 32.62 17.11, 40.83 7.67 M22.07 53.64 C37.72 35.63, 53.37 17.63, 64.71 4.58 M22.07 53.64 C34.57 39.26, 47.07 24.88, 64.71 4.58 M43.33 53.57 C53.15 42.27, 62.97 30.97, 73.51 18.85 M43.33 53.57 C49.8 46.12, 56.27 38.68, 73.51 18.85" stroke="#ffc9c9" stroke-width="2" fill="none"></path><path d="M10.9 0 M10.9 0 C19.69 0, 28.47 0, 53.94 0 M10.9 0 C20.95 0, 31 0, 53.94 0 M53.94 0 C61.21 0, 64.84 3.63, 64.84 10.9 M53.94 0 C61.21 0, 64.84 3.63, 64.84 10.9 M64.84 10.9 C64.84 18.88, 64.84 26.86, 64.84 32.7 M64.84 10.9 C64.84 17.97, 64.84 25.05, 64.84 32.7 M64.84 32.7 C64.84 39.97, 61.21 43.6, 53.94 43.6 M64.84 32.7 C64.84 39.97, 61.21 43.6, 53.94 43.6 M53.94 43.6 C45.19 43.6, 36.43 43.6, 10.9 43.6 M53.94 43.6 C39.15 43.6, 24.36 43.6, 10.9 43.6 M10.9 43.6 C3.63 43.6, 0 39.97, 0 32.7 M10.9 43.6 C3.63 43.6, 0 39.97, 0 32.7 M0 32.7 C0 26.67, 0 20.65, 0 10.9 M0 32.7 C0 25.42, 0 18.14, 0 10.9 M0 10.9 C0 3.63, 3.63 0, 10.9 0 M0 10.9 C0 3.63, 3.63 0, 10.9 0" stroke="#e03131" stroke-width="4" fill="none"></path></g><g transform="translate(525.7999904729182 421.2291647412521) rotate(0 16.40625 16.80000000000001)"><text x="16.40625" y="0" font-family="Cascadia, Segoe UI Emoji" font-size="28px" fill="#e03131" text-anchor="middle" style="white-space: pre;" direction="ltr" dominant-baseline="text-before-edge">CB</text></g><g stroke-linecap="round"><g transform="translate(534.2549979715764 119.22428891388157) rotate(0 69.48995855637185 -0.9576992445143446)"><path d="M0 0 C23.16 -0.32, 115.82 -1.6, 138.98 -1.92" stroke="#2f9e44" stroke-width="4.5" fill="none" stroke-dasharray="8 12"></path></g></g><mask></mask><g stroke-linecap="round"><g transform="translate(663.937372874658 117.96094097430947) rotate(0 -0.029109399529318125 22.190095261193974)"><path d="M0 0 C-0.01 7.4, -0.05 36.98, -0.06 44.38" stroke="#2f9e44" stroke-width="4.5" fill="none" stroke-dasharray="8 12"></path></g><g transform="translate(663.937372874658 117.96094097430947) rotate(0 -0.029109399529318125 22.190095261193974)"><path d="M-7.62 23.52 C-4.71 31.56, -1.79 39.59, -0.06 44.38" stroke="#2f9e44" stroke-width="4.5" fill="none"></path></g><g transform="translate(663.937372874658 117.96094097430947) rotate(0 -0.029109399529318125 22.190095261193974)"><path d="M7.56 23.54 C4.62 31.57, 1.69 39.6, -0.06 44.38" stroke="#2f9e44" stroke-width="4.5" fill="none"></path></g></g><mask></mask><g transform="translate(21.504569022570422 150.00047794475046) rotate(0 49.21875 33.599999999999994)"><text x="49.21875" y="0" font-family="Cascadia, Segoe UI Emoji" font-size="28px" fill="#2f9e44" text-anchor="middle" style="white-space: pre;" direction="ltr" dominant-baseline="text-before-edge">memory</text><text x="49.21875" y="33.6" font-family="Cascadia, Segoe UI Emoji" font-size="28px" fill="#2f9e44" text-anchor="middle" style="white-space: pre;" direction="ltr" dominant-baseline="text-before-edge">hub</text></g><g transform="translate(129.3364160889438 183.252486685243) rotate(0 60.6826171875 16.099999999999994)"><text x="60.6826171875" y="0" font-family="Helvetica, Segoe UI Emoji" font-size="28px" fill="#2f9e44" text-anchor="middle" style="white-space: pre;" direction="ltr" dominant-baseline="text-before-edge">Call stack</text></g><g transform="translate(417.1836646309097 10) rotate(0 57.421875 16.8)"><text x="57.421875" y="0" font-family="Cascadia, Segoe UI Emoji" font-size="28px" fill="#2f9e44" text-anchor="middle" style="white-space: pre;" direction="ltr" dominant-baseline="text-before-edge">Web API</text></g><g transform="translate(432.9859561147314 68.99578043627776) rotate(0 41.015625 12)"><text x="41.015625" y="0" font-family="Cascadia, Segoe UI Emoji" font-size="20px" fill="#1e1e1e" text-anchor="middle" style="white-space: pre;" direction="ltr" dominant-baseline="text-before-edge">DOM API</text></g><g transform="translate(426.4041806967956 109.88525653553341) rotate(0 51.5625 9.600000000000001)"><text x="51.5625" y="0" font-family="Cascadia, Segoe UI Emoji" font-size="16px" fill="#2f9e44" text-anchor="middle" style="white-space: pre;" direction="ltr" dominant-baseline="text-before-edge">Set timeout</text></g><g transform="translate(426.47607759407606 152.9514008452127) rotate(0 51.5625 9.599999999999994)"><text x="51.5625" y="0" font-family="Cascadia, Segoe UI Emoji" font-size="16px" fill="#2f9e44" text-anchor="middle" style="white-space: pre;" direction="ltr" dominant-baseline="text-before-edge">setInterval</text></g><g transform="translate(176.00206235226665 293.3426153480718) rotate(0 16.40625 16.80000000000001)"><text x="16.40625" y="0" font-family="Cascadia, Segoe UI Emoji" font-size="28px" fill="#1e1e1e" text-anchor="middle" style="white-space: pre;" direction="ltr" dominant-baseline="text-before-edge">fn</text></g><g transform="translate(175.05034328609247 332.3642517691932) rotate(0 16.40625 16.80000000000001)"><text x="16.40625" y="0" font-family="Cascadia, Segoe UI Emoji" font-size="28px" fill="#1e1e1e" text-anchor="middle" style="white-space: pre;" direction="ltr" dominant-baseline="text-before-edge">fn</text></g><g transform="translate(178.00206235226665 375.88758683633074) rotate(0 16.40625 16.80000000000001)"><text x="16.40625" y="0" font-family="Cascadia, Segoe UI Emoji" font-size="28px" fill="#1e1e1e" text-anchor="middle" style="white-space: pre;" direction="ltr" dominant-baseline="text-before-edge">fn</text></g><g mask="url(#mask-syimCL5z-Ja4P-FPy3Ycb)" stroke-linecap="round"><g transform="translate(522.0989127281359 229.93315720375819) rotate(0 0.22705331632857906 81.03765734964963)"><path d="M0 0 C0.08 27.01, 0.38 135.06, 0.45 162.08 M0 0 C0.08 27.01, 0.38 135.06, 0.45 162.08" stroke="#e03131" stroke-width="4" fill="none"></path></g><g transform="translate(522.0989127281359 229.93315720375819) rotate(0 0.22705331632857906 81.03765734964963)"><path d="M-9.89 133.91 C-5.87 144.86, -1.85 155.81, 0.45 162.08 M-9.89 133.91 C-6.1 144.21, -2.32 154.51, 0.45 162.08" stroke="#e03131" stroke-width="4" fill="none"></path></g><g transform="translate(522.0989127281359 229.93315720375819) rotate(0 0.22705331632857906 81.03765734964963)"><path d="M10.64 133.86 C6.68 144.83, 2.72 155.8, 0.45 162.08 M10.64 133.86 C6.91 144.17, 3.19 154.49, 0.45 162.08" stroke="#e03131" stroke-width="4" fill="none"></path></g></g><mask id="mask-syimCL5z-Ja4P-FPy3Ycb"><rect x="0" y="0" fill="#fff" width="622.5530193607931" height="492.00847190305745"></rect><rect x="472.5329972944646" y="294.8708145534078" fill="#000" width="99.5859375" height="32.199999999999996" opacity="1"></rect></mask><g transform="translate(472.5329972944645 294.87081455340785) rotate(0 49.79296875 16.100000000000023)"><text x="49.79296875" y="0" font-family="Helvetica, Segoe UI Emoji" font-size="28px" fill="#e03131" text-anchor="middle" style="white-space: pre;" direction="ltr" dominant-baseline="text-before-edge">promise</text></g><g stroke-linecap="round"><g transform="translate(436.2494716362911 438.284607729731) rotate(0 -90.25951512053541 -2.9832108026270987)"><path d="M0 0 C-30.09 -0.99, -150.43 -4.97, -180.52 -5.97 M0 0 C-30.09 -0.99, -150.43 -4.97, -180.52 -5.97" stroke="#e03131" stroke-width="4" fill="none"></path></g><g transform="translate(436.2494716362911 438.284607729731) rotate(0 -90.25951512053541 -2.9832108026270987)"><path d="M-152 -15.29 C-161.02 -12.34, -170.04 -9.39, -180.52 -5.97 M-152 -15.29 C-158.77 -13.08, -165.54 -10.86, -180.52 -5.97" stroke="#e03131" stroke-width="4" fill="none"></path></g><g transform="translate(436.2494716362911 438.284607729731) rotate(0 -90.25951512053541 -2.9832108026270987)"><path d="M-152.68 5.22 C-161.49 1.68, -170.29 -1.86, -180.52 -5.97 M-152.68 5.22 C-159.29 2.56, -165.9 -0.09, -180.52 -5.97" stroke="#e03131" stroke-width="4" fill="none"></path></g></g><mask></mask><g stroke-linecap="round"><g transform="translate(372.01084875500703 569.1275242791046) rotate(0 -84.11160993994486 -2.037657967051814)"><path d="M0 0 C-28.04 -0.68, -140.19 -3.4, -168.22 -4.08" stroke="#2f9e44" stroke-width="4.5" fill="none" stroke-dasharray="8 12"></path></g></g><mask></mask><g stroke-linecap="round"><g transform="translate(212.2746987395359 574.5387010061866) rotate(0 -3.139724630845535 -48.98953361514583)"><path d="M0 0 C-1.05 -16.33, -5.23 -81.65, -6.28 -97.98" stroke="#2f9e44" stroke-width="4.5" fill="none" stroke-dasharray="8 12"></path></g><g transform="translate(212.2746987395359 574.5387010061866) rotate(0 -3.139724630845535 -48.98953361514583)"><path d="M5.76 -70.5 C1.26 -80.77, -3.24 -91.04, -6.28 -97.98" stroke="#2f9e44" stroke-width="4.5" fill="none"></path></g><g transform="translate(212.2746987395359 574.5387010061866) rotate(0 -3.139724630845535 -48.98953361514583)"><path d="M-14.72 -69.19 C-11.56 -79.95, -8.41 -90.7, -6.28 -97.98" stroke="#2f9e44" stroke-width="4.5" fill="none"></path></g></g><mask></mask><g mask="url(#mask-VOOLBK8DbkEhNZ6tBSXge)" stroke-linecap="round"><g transform="translate(253.66949590854517 302.6891903873187) rotate(0 84.56733456672146 -86.8052036441615)"><path d="M0 0 C28.19 -28.94, 140.95 -144.68, 169.13 -173.61 M0 0 C28.19 -28.94, 140.95 -144.68, 169.13 -173.61" stroke="#1e1e1e" stroke-width="4" fill="none"></path></g><g transform="translate(253.66949590854517 302.6891903873187) rotate(0 84.56733456672146 -86.8052036441615)"><path d="M156.81 -146.26 C161.03 -155.61, 165.24 -164.97, 169.13 -173.61 M156.81 -146.26 C160.12 -153.61, 163.44 -160.96, 169.13 -173.61" stroke="#1e1e1e" stroke-width="4" fill="none"></path></g><g transform="translate(253.66949590854517 302.6891903873187) rotate(0 84.56733456672146 -86.8052036441615)"><path d="M142.11 -160.58 C151.35 -165.03, 160.6 -169.49, 169.13 -173.61 M142.11 -160.58 C149.38 -164.08, 156.64 -167.58, 169.13 -173.61" stroke="#1e1e1e" stroke-width="4" fill="none"></path></g></g><mask id="mask-VOOLBK8DbkEhNZ6tBSXge"><rect x="0" y="0" fill="#fff" width="522.8041650419881" height="576.2995976756417"></rect><rect x="305.42433047526663" y="199.0839867431572" fill="#000" width="65.625" height="33.6" opacity="1"></rect></mask><g transform="translate(305.42433047526663 199.0839867431572) rotate(0 32.8125 16.800000000000026)"><text x="32.8125" y="0" font-family="Cascadia, Segoe UI Emoji" font-size="28px" fill="#1e1e1e" text-anchor="middle" style="white-space: pre;" direction="ltr" dominant-baseline="text-before-edge">Call</text></g><g transform="translate(52.8312388822543 105.8486598125465) rotate(0 73.828125 16.800000000000004)"><text x="73.828125" y="0" font-family="Cascadia, Segoe UI Emoji" font-size="28px" fill="#f08c00" text-anchor="middle" style="white-space: pre;" direction="ltr" dominant-baseline="text-before-edge">JS Engine</text></g><g transform="translate(413.06478888561105 614.4948548527807) rotate(0 82.03125 16.80000000000001)"><text x="82.03125" y="0" font-family="Cascadia, Segoe UI Emoji" font-size="28px" fill="#1e1e1e" text-anchor="middle" style="white-space: pre;" direction="ltr" dominant-baseline="text-before-edge">Task queqe</text></g><g transform="translate(286.845630112662 397.3114674879527) rotate(0 65.625 33.599999999999994)"><text x="65.625" y="0" font-family="Cascadia, Segoe UI Emoji" font-size="28px" fill="#e03131" text-anchor="middle" style="white-space: pre;" direction="ltr" dominant-baseline="text-before-edge">High</text><text x="65.625" y="33.6" font-family="Cascadia, Segoe UI Emoji" font-size="28px" fill="#e03131" text-anchor="middle" style="white-space: pre;" direction="ltr" dominant-baseline="text-before-edge">Priority</text></g><g transform="translate(213.2746987395359 533.2332100715905) rotate(0 65.3720703125 32.19999999999999)"><text x="65.3720703125" y="0" font-family="Helvetica, Segoe UI Emoji" font-size="28px" fill="#1e1e1e" text-anchor="middle" style="white-space: pre;" direction="ltr" dominant-baseline="text-before-edge">Add to call</text><text x="65.3720703125" y="32.199999999999996" font-family="Helvetica, Segoe UI Emoji" font-size="28px" fill="#1e1e1e" text-anchor="middle" style="white-space: pre;" direction="ltr" dominant-baseline="text-before-edge">Stack</text></g><g transform="translate(198.27001861297833 710.6767694337225) rotate(0 105.46875 21.600000000000023)"><text x="105.46875" y="0" font-family="Cascadia, Segoe UI Emoji" font-size="36px" fill="#e03131" text-anchor="middle" style="white-space: pre;" direction="ltr" dominant-baseline="text-before-edge">Event Loop</text></g></svg>